<svg width="976" height="945" viewBox="0 0 976 945" fill="none" xmlns="http://www.w3.org/2000/svg">
<path d="M941.58 1.84998H31.2799C15.479 1.84998 2.66992 14.6591 2.66992 30.46V908.91C2.66992 924.711 15.479 937.52 31.2799 937.52H941.58C957.381 937.52 970.19 924.711 970.19 908.91V30.46C970.19 14.6591 957.381 1.84998 941.58 1.84998Z" fill="#FFDB54"/>
<path d="M968.2 659.04H6.6499V937.52H968.2V659.04Z" fill="white"/>
<path d="M104.74 658.15H8.63989V751.05H104.74V658.15Z" fill="#F22A29"/>
<path d="M104.74 843.29H8.63989V936.19H104.74V843.29Z" fill="#F22A29"/>
<path d="M200.84 750.39H104.74V843.29H200.84V750.39Z" fill="#F22A29"/>
<path d="M296.94 658.15H200.84V751.05H296.94V658.15Z" fill="#F22A29"/>
<path d="M296.94 843.29H200.84V936.19H296.94V843.29Z" fill="#F22A29"/>
<path d="M393.03 750.39H296.93V843.29H393.03V750.39Z" fill="#F22A29"/>
<path d="M487.76 658.15H391.66V751.05H487.76V658.15Z" fill="#F22A29"/>
<path d="M487.76 843.29H391.66V936.19H487.76V843.29Z" fill="#F22A29"/>
<path d="M583.86 750.39H487.76V843.29H583.86V750.39Z" fill="#F22A29"/>
<path d="M679.95 658.15H583.85V751.05H679.95V658.15Z" fill="#F22A29"/>
<path d="M679.95 843.29H583.85V936.19H679.95V843.29Z" fill="#F22A29"/>
<path d="M776.05 750.39H679.95V843.29H776.05V750.39Z" fill="#F22A29"/>
<path d="M870.78 658.15H774.68V751.05H870.78V658.15Z" fill="#F22A29"/>
<path d="M870.78 843.29H774.68V936.19H870.78V843.29Z" fill="#F22A29"/>
<path d="M966.87 750.39H870.77V843.29H966.87V750.39Z" fill="#F22A29"/>
<path d="M952.77 5.16992H22.7399C12.7546 5.16992 4.65991 13.2646 4.65991 23.2499V921.43C4.65991 931.415 12.7546 939.51 22.7399 939.51H952.77C962.755 939.51 970.85 931.415 970.85 921.43V23.2499C970.85 13.2646 962.755 5.16992 952.77 5.16992Z" stroke="#231F20" stroke-width="9" stroke-linecap="round" stroke-linejoin="round"/>
</svg>
