<svg width="1894" height="947" viewBox="0 0 1894 947" fill="none" xmlns="http://www.w3.org/2000/svg">
<path d="M1868.19 3.87H27.7398C15.3631 3.87 5.32983 13.9033 5.32983 26.28V921.11C5.32983 933.487 15.3631 943.52 27.7398 943.52H1868.19C1880.57 943.52 1890.6 933.487 1890.6 921.11V26.28C1890.6 13.9033 1880.57 3.87 1868.19 3.87Z" fill="#F22A29"/>
<path d="M940.24 877.98C1414.2 877.98 1798.42 698.101 1798.42 476.21C1798.42 254.319 1414.2 74.4399 940.24 74.4399C466.28 74.4399 82.0598 254.319 82.0598 476.21C82.0598 698.101 466.28 877.98 940.24 877.98Z" fill="#FFDB54"/>
<path d="M1870.9 5.43994H23.0399C12.8944 5.43994 4.66992 13.6646 4.66992 23.8101V923.15C4.66992 933.295 12.8944 941.52 23.0399 941.52H1870.9C1881.05 941.52 1889.27 933.295 1889.27 923.15V23.8101C1889.27 13.6646 1881.05 5.43994 1870.9 5.43994Z" stroke="#231F20" stroke-width="9" stroke-linecap="round" stroke-linejoin="round"/>
<path d="M940.03 878.94C1414.44 878.94 1799.03 698.873 1799.03 476.75C1799.03 254.627 1414.44 74.5601 940.03 74.5601C465.617 74.5601 81.03 254.627 81.03 476.75C81.03 698.873 465.617 878.94 940.03 878.94Z" stroke="#231F20" stroke-width="9" stroke-linecap="round" stroke-linejoin="round"/>
</svg>
